Coordinates
version=1
nRows=9
nColumns=36
inDegrees=yes

Units are S.I. units (second, meters, Newtons, ...)
If the header above contains a line with 'inDegrees', this indicates whether rotational values are in degrees (yes) or radians (no).

endheader
time	pelvis_tilt	pelvis_list	pelvis_rotation	pelvis_tx	pelvis_ty	pelvis_tz	hip_flexion_r	hip_adduction_r	hip_rotation_r	knee_angle_r	knee_angle_r_beta	ankle_angle_r	subtalar_angle_r	mtp_angle_r	hip_flexion_l	hip_adduction_l	hip_rotation_l	knee_angle_l	knee_angle_l_beta	ankle_angle_l	subtalar_angle_l	mtp_angle_l	lumbar_extension	lumbar_bending	lumbar_rotation	arm_flex_r	arm_add_r	arm_rot_r	elbow_flex_r	pro_sup_r	arm_flex_l	arm_add_l	arm_rot_l	elbow_flex_l	pro_sup_l
      0.00000000	     -2.91750765	     -0.30528570	     -1.52018934	     -0.16030973	      1.14737453	     -0.60252699	      1.25937886	     -7.42922961	     -0.35468423	      3.44973251	      0.06020919	      7.02182753	     -3.99557511	     -6.47568369	      0.59536072	     -8.47666121	    -15.38542139	      3.99765482	      0.06977224	      7.57408464	      4.15252183	     -6.47568369	     -5.22417699	      1.10608177	      1.90082123	      0.69910769	    -12.13584463	      1.45783676	     32.26625811	     78.69110346	      0.53538088	    -10.78612918	     -3.26453251	     29.14655625	     76.32644658
      0.01000000	     -2.87550940	     -0.30323802	     -1.51101274	     -0.16183101	      1.14841077	     -0.60299589	      1.25211442	     -7.42392394	     -0.23552428	      3.47394544	      0.06063179	      6.95797951	     -4.20841901	     -6.62967094	      0.58985792	     -8.46799207	    -15.41778446	      3.98814942	      0.06960634	      7.39108211	      4.03972255	     -6.62967094	     -5.38625426	      1.09727120	      1.97148857	      0.78114260	    -12.19597159	      1.49573917	     33.06098120	     77.66783402	      0.64217671	    -10.85431857	     -3.21672114	     29.86986039	     75.35154531
      0.02000000	     -3.43363008	     -0.27864348	     -1.38082539	     -0.16192512	      1.14733524	     -0.60376287	      2.18362603	     -7.45672102	     -0.41721988	      4.10901822	      0.07171590	      7.20714705	     -4.19176870	     -6.69395117	      1.58111703	     -8.52438710	    -15.06810592	      4.61991760	      0.08063277	      7.47102917	      3.53369183	     -6.69395117	     -4.91288975	      1.08890986	      1.87329582	      0.60969243	    -12.25073881	      1.41302931	     34.32882584	     76.83368201	      0.45798957	    -10.98372542	     -3.21680518	     31.10626181	     74.59494182
      0.03000000	     -2.81771033	     -0.24673345	     -1.42764642	     -0.15880736	      1.14886518	     -0.60412897	      1.09998590	     -7.49298471	     -0.22561084	      3.32961023	      0.05811266	      6.83471372	     -4.20416346	     -6.91878752	      0.51203165	     -8.36561536	    -15.41436749	      3.90053786	      0.06807723	      7.28254014	      4.15369862	     -6.91878752	     -5.32758758	      1.06094841	      1.91716137	      0.85221069	    -12.14444693	      0.53787933	     34.36776350	     82.18746094	      0.77454849	    -10.83608981	     -4.18088265	     30.81887878	     78.64481112
      0.04000000	     -2.81187049	     -0.21328004	     -1.38767669	     -0.15777585	      1.14856692	     -0.60422934	      1.02703440	     -7.53197399	     -0.22999715	      3.24724481	      0.05667511	      6.70309688	     -4.17779748	     -6.98525099	      0.45392574	     -8.28984300	    -15.34553927	      3.78605819	      0.06607918	      7.07064591	      4.07995459	     -6.98525099	     -5.22020100	      1.02056909	      1.88123236	      0.75252750	    -12.18195358	      0.55608964	     35.29989406	     80.81793791	      0.65377479	    -10.87617363	     -4.14526758	     31.62605356	     77.36608455
      0.05000000	     -2.76447812	     -0.21602600	     -1.26379836	     -0.15918822	      1.14628382	     -0.60420172	      0.96155861	     -7.52974693	     -0.28872314	      3.26740242	      0.05702693	      6.76682261	     -4.21501047	     -7.11224969	      0.48407250	     -8.29396326	    -15.25399113	      3.88101512	      0.06773649	      7.32873459	      4.32611920	     -7.11224969	     -5.21187657	      1.00988118	      1.74333121	      0.86512196	    -12.36919105	      1.16224514	     36.09710532	     81.09150796	      0.72630135	    -11.00658081	     -3.83082813	     32.17748244	     77.32712691
      0.06000000	     -2.70260104	     -0.20603969	     -1.17408707	     -0.16052949	      1.14411632	     -0.60416157	      0.92814800	     -7.54998110	     -0.37901403	      3.34021356	      0.05829772	      6.87936613	     -4.16668559	     -7.18104606	      0.47547677	     -8.26356253	    -14.96477831	      3.91633431	      0.06835293	      7.30547913	      3.98920889	     -7.18104606	     -5.29179433	      0.97867763	      1.70179540	      0.82147879	    -12.45102439	      1.16498050	     37.29825348	     80.25417233	      0.67436807	    -11.02957983	     -3.97624604	     33.20832058	     76.51570112
      0.07000000	     -2.77990426	     -0.21263198	     -1.18555497	     -0.16105032	      1.14259561	     -0.60429803	      1.09948317	     -7.55099532	     -0.35960504	      3.47291276	      0.06061376	      6.98941114	     -4.13683074	     -7.20852042	      0.62147411	     -8.28250754	    -15.03402257	      4.02258326	      0.07020732	      7.38302570	      4.03354885	     -7.20852042	     -5.14407320	      0.96706044	      1.71303190	      0.86392221	    -12.48430090	      1.13544531	     38.26580914	     79.53874775	      0.66451644	    -11.06378837	     -4.02424538	     34.07032774	     75.83890012
      0.08000000	     -2.74688008	     -0.22733191	     -1.19696768	     -0.16196980	      1.14127571	     -0.60509783	      1.15924134	     -7.55007554	     -0.25538259	      3.60416045	      0.06290447	      7.09801804	     -4.31074364	     -7.38558124	      0.68185491	     -8.31462482	    -15.08075929	      4.18952353	      0.07312098	      7.65955059	      4.14736762	     -7.38558124	     -5.24267486	      0.98997533	      1.79816903	      0.79916275	    -12.51280283	      0.35571315	     39.74019438	     83.25868472	      0.69097827	    -10.99088768	     -4.67213730	     35.31064916	     78.11259953
